<svg width="256" height="99" viewBox="0 0 256 99" fill="none" xmlns="http://www.w3.org/2000/svg">
<g clip-path="url(#clip0_2328_112)">
<mask id="mask0_2328_112" style="mask-type:luminance" maskUnits="userSpaceOnUse" x="0" y="0" width="256" height="99">
<path d="M255.561 0H0V98.3333H255.561V0Z" fill="white"/>
</mask>
<g mask="url(#mask0_2328_112)">
<path d="M29.2495 72.1112C21.9031 72.1112 16.1844 70.2586 12.093 66.5544C8.00153 62.8202 5.95605 57.6071 5.95605 50.9145C5.95605 43.685 8.22564 37.9935 12.7648 33.8409C17.3039 29.6883 23.4114 27.6118 31.086 27.6118H37.1335V21.8309H44.9723V64.9412H55.4096C55.7084 64.9412 55.8578 65.0607 55.8578 65.2997V71.6628C55.8578 71.9618 55.7084 72.1112 55.4096 72.1112H29.2495ZM37.1335 64.9412V34.7372H31.3549C25.8598 34.7372 21.6042 36.1561 18.5881 38.9945C15.602 41.8029 14.1089 45.7461 14.1089 50.825C14.1089 55.396 15.4079 58.8913 18.0058 61.3113C20.6041 63.7313 24.2921 64.9412 29.0701 64.9412H37.1335ZM24.5014 13.3612C23.0678 13.3612 21.8436 12.928 20.8282 12.0615C19.8423 11.1951 19.3499 9.791 19.3499 7.84911C19.3499 5.90717 19.8423 4.50302 20.8282 3.63666C21.8436 2.77024 23.0678 2.33704 24.5014 2.33704C26.054 2.33704 27.2934 2.81504 28.2194 3.77108C29.1448 4.69723 29.6077 6.05654 29.6077 7.84911C29.6077 9.61178 29.1448 10.9711 28.2194 11.9271C27.3234 12.8831 26.0839 13.3612 24.5014 13.3612ZM40.3585 13.3612C38.776 13.3612 37.5218 12.8831 36.5958 11.9271C35.6699 10.9711 35.207 9.61178 35.207 7.84911C35.207 6.08644 35.6552 4.72708 36.5511 3.77108C37.4765 2.81504 38.746 2.33704 40.3585 2.33704C42.001 2.33704 43.2704 2.84493 44.1659 3.86071C45.0618 4.8466 45.51 6.17607 45.51 7.84911C45.51 9.5221 45.0618 10.8665 44.1659 11.8823C43.2704 12.8682 42.001 13.3612 40.3585 13.3612ZM54.5583 72.1112C54.26 72.1112 54.1106 71.9618 54.1106 71.6628V65.2997C54.1106 65.0607 54.26 64.9412 54.5583 64.9412H69.4305V27.6118H77.5829V64.9412H91.335C91.6334 64.9412 91.7828 65.0607 91.7828 65.2997V71.6628C91.7828 71.9618 91.6334 72.1112 91.335 72.1112H54.5583ZM65.8468 90.4848C64.4132 90.4848 63.1889 90.0521 62.1736 89.1853C61.1882 88.3185 60.6952 86.9143 60.6952 84.9727C60.6952 83.0311 61.1882 81.6269 62.1736 80.7601C63.1889 79.8943 64.4132 79.4607 65.8468 79.4607C67.3998 79.4607 68.6388 79.9238 69.5647 80.8501C70.4906 81.8059 70.9531 83.1806 70.9531 84.9727C70.9531 86.7354 70.4906 88.0953 69.5647 89.0511C68.6687 90.0069 67.4298 90.4848 65.8468 90.4848ZM81.7043 90.4848C80.1213 90.4848 78.8671 90.0069 77.9412 89.0511C77.0158 88.0953 76.5528 86.7354 76.5528 84.9727C76.5528 83.2101 77.001 81.8511 77.8965 80.8944C78.8224 79.9386 80.0918 79.4607 81.7043 79.4607C83.3468 79.4607 84.6157 79.9538 85.5117 80.9396C86.4076 81.9554 86.8559 83.2996 86.8559 84.9727C86.8559 86.6459 86.4076 87.9753 85.5117 88.9611C84.6157 89.9774 83.3468 90.4848 81.7043 90.4848ZM90.4838 72.1112C90.185 72.1112 90.0356 71.9618 90.0356 71.6628V65.2997C90.0356 65.0607 90.185 64.9412 90.4838 64.9412H102.579V27.6118H110.731V72.1112H90.4838ZM106.251 90.4848C104.669 90.4848 103.415 90.0069 102.489 89.0511C101.563 88.0953 101.1 86.7354 101.1 84.9727C101.1 83.2101 101.549 81.8511 102.444 80.8944C103.37 79.9386 104.639 79.4607 106.251 79.4607C107.894 79.4607 109.163 79.9538 110.059 80.9396C110.955 81.9554 111.403 83.2996 111.403 84.9727C111.403 86.6459 110.955 87.9753 110.059 88.9611C109.163 89.9774 107.894 90.4848 106.251 90.4848ZM140.565 72.1112V74.3075C140.565 80.4912 139.161 85.3464 136.354 88.8712C133.547 92.3969 129.5 94.1595 124.215 94.1595C121.288 94.1595 118.167 93.2932 114.852 91.5606L117.226 85.4211C118.719 86.078 119.944 86.4964 120.9 86.6759C121.855 86.8848 122.9 86.9891 124.035 86.9891C126.783 86.9891 128.933 85.869 130.486 83.628C132.039 81.3875 132.816 78.4301 132.816 74.7554V27.6118H140.565V64.9412H151.898C152.226 64.9412 152.391 65.0607 152.391 65.2997V71.6628C152.391 71.9618 152.226 72.1112 151.898 72.1112H140.565ZM195.707 72.1112C193.139 72.1112 190.376 71.7376 187.42 70.9912C184.463 70.2144 181.567 69.0644 178.73 67.5402C173.354 70.588 167.665 72.1112 161.663 72.1112H151.047C150.748 72.1112 150.599 71.9618 150.599 71.6628V65.2997C150.599 65.0607 150.748 64.9412 151.047 64.9412H161.573C165.963 64.9412 169.606 64.3291 172.503 63.1039C170.144 61.4012 167.725 58.9513 165.247 55.7545C162.798 52.5281 160.708 49.0624 158.975 45.3577C157.273 41.6235 156.153 38.083 155.616 34.7372C158.96 31.6003 162.723 29.1355 166.904 27.3429C171.115 25.5503 175.4 24.6541 179.76 24.6541C183.612 24.6541 187.495 25.2666 191.407 26.4915C195.319 27.7163 198.738 29.3446 201.665 31.3761C201.665 37.7098 200.202 43.685 197.275 49.3013C194.349 54.9181 190.317 59.4892 185.18 63.0144C188.585 64.2991 191.974 64.9412 195.348 64.9412H206.457C206.756 64.9412 206.906 65.0607 206.906 65.2997V71.6628C206.906 71.9618 206.756 72.1112 206.457 72.1112H195.707ZM178.819 58.9813C183.538 55.7844 187.047 52.2739 189.346 48.4498C191.646 44.6261 192.945 40.2193 193.243 35.2298C188.973 32.9593 184.568 31.8241 180.028 31.8241C174.833 31.8241 169.636 33.6019 164.44 37.1572C165.366 41.3398 167.098 45.3429 169.636 49.1671C172.175 52.9913 175.236 56.2623 178.819 58.9813ZM205.607 72.1112C205.308 72.1112 205.159 71.9618 205.159 71.6628V65.2997C205.159 65.0607 205.308 64.9412 205.607 64.9412H217.702V2.38188H225.854V72.1112H205.607ZM244.265 2.38188H252.417V72.1112H244.265V2.38188Z" fill="white"/>
</g>
</g>
<defs>
<clipPath id="clip0_2328_112">
<rect width="255.561" height="98.3333" fill="white"/>
</clipPath>
</defs>
</svg>
