<svg width="206" height="57" viewBox="0 0 206 57" fill="none" xmlns="http://www.w3.org/2000/svg">
<path fill-rule="evenodd" clip-rule="evenodd" d="M66.9112 3.70383C66.9112 2.64933 65.6237 2.10783 64.7368 2.64933L61.046 4.75833C60.2162 5.24283 59.6154 5.78433 59.6154 6.92433V34.4553C59.6154 35.3958 59.8729 36.2793 60.7598 37.2483C62.2219 38.6999 63.965 39.84 65.8832 40.5994C67.8015 41.3588 69.8547 41.7217 71.9182 41.6658C80.5873 41.6658 86.796 36.3078 86.796 28.4418C86.796 20.1768 81.4743 15.5313 74.4932 15.5313C71.7465 15.5313 68.6851 16.1298 66.9112 17.3553V3.67533V3.70383ZM116.008 21.8298C116.008 20.7468 116.008 20.0628 115.035 19.2078C111.8 16.6293 107.729 15.3213 103.591 15.5313C95.2076 15.5313 88.9132 20.6613 88.9132 28.7268C88.9132 37.1058 94.6354 41.6658 101.359 41.6658C104.935 41.6658 107.453 40.3548 108.798 38.1888V39.1578C108.798 40.1838 109.485 40.9248 110.457 40.9248H114.348C115.321 40.9248 116.008 40.1838 116.008 39.1578V21.8298ZM188.251 22.2573H198.923C199.953 22.2573 200.64 21.6303 200.64 20.6328V18.1533C200.64 17.1558 199.953 16.5288 198.923 16.5288H188.251V7.89333C188.251 6.81033 186.878 6.38283 186.077 6.86733L182.386 8.97634C181.556 9.46084 180.955 10.0023 180.955 11.1423V29.2113C180.955 37.1628 185.876 41.6658 193.458 41.6658C195.661 41.712 197.833 41.1391 199.724 40.0128C200.697 39.3573 201.155 38.5878 201.155 37.7043V34.7403C201.155 34.0278 200.582 33.6858 200.067 33.6858C199.495 33.6858 198.98 34.1133 198.351 34.5408C197.55 35.1108 196.319 35.7378 194.288 35.7378C190.454 35.7378 188.251 33.4578 188.251 29.4678V22.2288V22.2573ZM138.811 32.2323C138.38 33.2815 137.642 34.177 136.693 34.8023C135.743 35.4276 134.627 35.7536 133.489 35.7378C129.455 35.7378 127.538 33.3438 127.538 29.2683V18.2958C127.538 17.2698 126.852 16.5288 125.85 16.5288H121.845C120.843 16.5288 120.128 17.2698 120.128 18.2958V29.4108C120.128 37.3623 124.591 41.6658 132.002 41.6658C134.863 41.6658 137.438 40.5258 138.811 38.3883V42.8913C138.811 47.0238 135.95 48.8193 132.002 48.8193C130.139 48.8117 128.305 48.3623 126.651 47.5083C125.793 47.0523 125.163 46.6248 124.677 46.6248C124.048 46.6248 123.361 47.0238 123.361 47.8788V50.7858C123.361 51.4128 123.704 52.2108 124.62 52.8378C126.108 53.9208 128.768 54.7473 132.402 54.7473C139.44 54.7473 146.135 50.5293 146.135 42.4638V18.2958C146.135 17.2698 145.449 16.5288 144.447 16.5288H140.47C139.498 16.5288 138.811 17.2698 138.811 18.2958V32.2038V32.2323ZM169.196 32.2323C168.767 33.2769 168.033 34.1693 167.089 34.7942C166.146 35.4191 165.036 35.7478 163.903 35.7378C159.869 35.7378 157.952 33.3438 157.952 29.2683V18.2958C157.952 17.2698 157.237 16.5288 156.264 16.5288H152.258C151.257 16.5288 150.542 17.2698 150.542 18.2958V29.4108C150.542 37.3623 154.976 41.6658 162.329 41.6658C165.276 41.6658 167.966 40.4973 169.31 38.1888V39.1578C169.31 40.1838 169.997 40.9248 170.97 40.9248H174.861C175.862 40.9248 176.549 40.1838 176.549 39.1578V18.2958C176.549 17.2698 175.862 16.5288 174.861 16.5288H170.855C169.911 16.5288 169.196 17.2698 169.196 18.2958V32.2038V32.2323ZM66.9112 23.1978C68.4519 21.9756 70.3788 21.3392 72.3473 21.4023C76.2671 21.4023 79.1568 23.5683 79.1568 28.5273C79.1568 33.7998 76.0096 35.8518 71.8323 35.8518C70.0585 35.8518 68.1415 35.2248 66.9112 34.0848V23.2263V23.1978ZM108.683 32.2323C107.911 34.3983 105.45 35.7093 103.018 35.7093C99.0129 35.7093 96.4379 33.2013 96.4379 28.4133C96.4379 23.5683 99.6423 21.1173 103.476 21.1173C105.479 21.1173 107.482 21.4878 108.683 22.5708V32.2323ZM31.0043 37.6188C35.1474 37.6188 39.1208 35.9794 42.0505 33.0611C44.9801 30.1429 46.626 26.1849 46.626 22.0578C46.626 17.9308 44.9801 13.9728 42.0505 11.0545C39.1208 8.13629 35.1474 6.49683 31.0043 6.49683C26.8612 6.49683 22.8877 8.13629 19.9581 11.0545C17.0285 13.9728 15.3826 17.9308 15.3826 22.0578C15.3826 26.1849 17.0285 30.1429 19.9581 33.0611C22.8877 35.9794 26.8612 37.6188 31.0043 37.6188ZM36.0971 3.13383C39.105 3.9331 41.8798 5.43163 44.1935 7.50637C46.5072 9.58112 48.2939 12.1729 49.4069 15.069C50.5199 17.965 50.9275 21.0828 50.5962 24.1662C50.2649 27.2496 49.2041 30.2108 47.501 32.8066C45.7978 35.4024 43.5009 37.5588 40.7988 39.0988C38.0966 40.6387 35.0664 41.5183 31.9567 41.6653C28.8471 41.8123 25.7468 41.2226 22.9104 39.9444C20.074 38.6663 17.5824 36.7363 15.6401 34.3128L15.5543 34.3698L4.73929 40.5828C4.54395 40.6952 4.32827 40.7682 4.10461 40.7975C3.88094 40.8268 3.65366 40.812 3.43577 40.7537C3.21788 40.6955 3.01365 40.5951 2.83475 40.4581C2.65586 40.3212 2.50581 40.1506 2.39318 39.9558L1.10568 37.7328C0.992836 37.5382 0.919602 37.3234 0.890165 37.1006C0.860728 36.8778 0.875666 36.6514 0.934125 36.4344C0.992583 36.2173 1.09342 36.0139 1.23086 35.8357C1.3683 35.6575 1.53965 35.508 1.73512 35.3958L12.5215 29.1828L12.636 29.1258C11.3149 25.7467 10.9604 22.0689 11.6119 18.5011C12.2635 14.9334 13.8955 11.6155 16.3265 8.91624C18.7576 6.21701 21.8925 4.2422 25.3827 3.21133C28.873 2.18045 32.5819 2.1339 36.0971 3.07683V3.13383ZM31.0043 22.0578C29.1732 22.0578 27.6854 23.5398 27.6854 25.3353V29.4393C27.6854 30.1233 27.1418 30.6648 26.4837 30.6648H22.0776C21.6804 30.6574 21.302 30.4949 21.0238 30.2125C20.7456 29.93 20.5898 29.5501 20.5898 29.1543V20.2338C20.5898 18.0108 20.5898 17.8113 21.4482 17.3268L29.1732 12.8808C29.8598 12.4533 30.3748 12.1683 31.0043 12.1683C31.6337 12.1683 32.1487 12.4533 32.8354 12.8808L40.5604 17.3268C41.4187 17.8113 41.4187 18.0108 41.4187 20.2338V29.1543C41.4187 29.9808 40.7321 30.6648 39.9023 30.6648H35.5248C35.1986 30.6648 34.8856 30.5357 34.6549 30.3059C34.4242 30.0761 34.2946 29.7644 34.2946 29.4393V25.3638C34.2946 23.5683 32.8068 22.0863 31.0043 22.0863V22.0578Z" fill="#28B16D"/>
<path d="M175.348 49.8451C175.348 50.5576 175.205 51.2131 174.976 51.8401C174.743 52.4382 174.39 52.9821 173.937 53.4381C173.484 53.8941 172.942 54.2524 172.344 54.4906C171.743 54.7471 171.028 54.8611 170.284 54.8611C169.511 54.8611 168.853 54.7471 168.224 54.4906C167.626 54.2524 167.084 53.8941 166.631 53.4381C166.178 52.9821 165.824 52.4382 165.592 51.8401C165.343 51.2044 165.216 50.5275 165.22 49.8451C165.22 49.1326 165.334 48.4486 165.592 47.8501C165.826 47.2529 166.18 46.7097 166.633 46.2539C167.086 45.7981 167.627 45.4393 168.224 45.1996C168.825 44.9146 169.511 44.8291 170.284 44.8291C171.028 44.8291 171.715 44.9431 172.344 45.1996C173.27 45.5627 174.059 46.2065 174.598 47.04C175.137 47.8736 175.399 48.8548 175.348 49.8451ZM173.26 49.8451C173.26 49.3321 173.174 48.8476 173.059 48.4486C172.934 48.0596 172.729 47.7006 172.458 47.3941C172.199 47.1059 171.876 46.8816 171.514 46.7386C171.123 46.5828 170.705 46.5053 170.284 46.5106C169.826 46.5106 169.426 46.5961 169.054 46.7386C168.693 46.8825 168.37 47.1067 168.11 47.3941C167.823 47.6791 167.652 48.0496 167.537 48.4486C167.366 48.8476 167.308 49.3036 167.308 49.8451C167.258 50.7198 167.533 51.5822 168.081 52.2676C168.367 52.5526 168.653 52.7806 169.054 52.9231C169.845 53.2314 170.723 53.2314 171.514 52.9231C171.875 52.7784 172.197 52.5543 172.458 52.2676C172.726 51.9743 172.922 51.6231 173.031 51.2416C173.174 50.8141 173.26 50.3581 173.26 49.8166V49.8451ZM176.464 54.7471V47.7646H177.608C177.866 47.7646 178.009 47.8786 178.095 48.1066L178.209 48.5341L178.581 48.1921C178.85 47.9771 179.163 47.8217 179.497 47.7361C179.683 47.683 179.875 47.6542 180.069 47.6506C180.498 47.6506 180.841 47.7646 181.128 47.9926C181.414 48.2206 181.614 48.5341 181.757 48.9046C181.966 48.484 182.308 48.1435 182.73 47.9356C183.094 47.7637 183.489 47.6651 183.891 47.6456C184.294 47.626 184.697 47.6858 185.076 47.8216C185.363 47.955 185.62 48.1451 185.832 48.3802C186.043 48.6153 186.204 48.8906 186.306 49.1896C186.392 49.5316 186.449 49.9021 186.449 50.3296V54.7471H184.59V50.3296C184.59 49.4746 184.246 49.1041 183.531 49.1041C183.359 49.1041 183.245 49.1041 183.102 49.1611C182.961 49.2139 182.833 49.2976 182.729 49.4062C182.625 49.5148 182.547 49.6453 182.501 49.7881C182.439 49.9619 182.41 50.1454 182.415 50.3296V54.7471H180.527V50.3296C180.527 49.8736 180.441 49.5601 180.269 49.3606C180.166 49.2641 180.045 49.1891 179.912 49.1402C179.779 49.0912 179.638 49.0693 179.497 49.0756C179.285 49.0826 179.079 49.1413 178.896 49.2466C178.682 49.3548 178.488 49.4995 178.324 49.6741V54.7471H176.464ZM187.794 48.7336C188.6 47.9871 189.669 47.5876 190.77 47.6221C191.199 47.6221 191.571 47.7076 191.914 47.8216C192.226 47.9515 192.507 48.1455 192.739 48.3911C192.971 48.6366 193.148 48.9282 193.259 49.2466C193.373 49.5886 193.43 49.9591 193.43 50.3866V54.7471H192.572C192.4 54.7471 192.286 54.7471 192.171 54.6901C192.066 54.6098 191.987 54.5009 191.943 54.3766L191.8 53.9206C191.628 54.0916 191.456 54.2056 191.285 54.3196C190.915 54.5896 190.486 54.7689 190.034 54.8432C189.582 54.9175 189.118 54.8846 188.681 54.7471C188.438 54.6698 188.214 54.5437 188.023 54.3766C187.839 54.2212 187.692 54.0264 187.594 53.8066C187.488 53.5343 187.439 53.2433 187.451 52.9516C187.456 52.683 187.524 52.4194 187.651 52.1821C187.805 51.8922 188.032 51.6468 188.309 51.4696C188.652 51.2701 189.081 51.0991 189.596 50.9566C190.14 50.8141 190.798 50.7571 191.599 50.7286V50.3581C191.599 49.9306 191.513 49.6171 191.313 49.3891C191.141 49.1896 190.884 49.1041 190.512 49.1041C190.13 49.0938 189.752 49.1927 189.425 49.3891L189.053 49.5886C188.928 49.6489 188.791 49.6782 188.652 49.6741C188.538 49.6721 188.427 49.632 188.338 49.5601C188.247 49.4992 188.17 49.4219 188.109 49.3321L187.794 48.7621V48.7336ZM191.628 51.8401C191.17 51.8401 190.77 51.8971 190.483 51.9541C190.226 51.996 189.976 52.0727 189.74 52.1821C189.593 52.2444 189.465 52.3424 189.368 52.4671C189.289 52.5851 189.249 52.7245 189.253 52.8661C189.253 53.1511 189.339 53.3221 189.482 53.4361C189.625 53.5501 189.854 53.6071 190.111 53.6071C190.426 53.6071 190.684 53.5501 190.941 53.4361C191.17 53.3221 191.399 53.1511 191.628 52.9231V51.8401ZM196.663 48.5911C196.806 48.4486 196.95 48.3061 197.093 48.2206C197.574 47.845 198.169 47.6439 198.781 47.6506C199.153 47.6506 199.496 47.7361 199.782 47.8501C200.068 47.9926 200.354 48.1636 200.526 48.4201C200.726 48.6481 200.869 48.9331 200.984 49.2466C201.098 49.5601 201.127 49.9306 201.127 50.3296V54.7471H199.267V50.3296C199.285 50.0012 199.183 49.6775 198.981 49.4176C198.809 49.1896 198.552 49.1041 198.18 49.1041C197.931 49.1029 197.686 49.1616 197.465 49.2751C197.212 49.3893 196.981 49.5433 196.778 49.7311V54.7471H194.918V47.7646H196.063C196.291 47.7646 196.463 47.8786 196.549 48.1066L196.663 48.5911Z" fill="#28B16D"/>
</svg>
