<?xml version="1.0" encoding="UTF-8" standalone="no"?>
<!-- Created with Inkscape (http://www.inkscape.org/) -->

<svg
   version="1.1"
   id="svg2"
   width="1122.52"
   height="793.70135"
   viewBox="0 0 1122.52 793.70135"
   xmlns="http://www.w3.org/2000/svg"
   xmlns:svg="http://www.w3.org/2000/svg">
  <defs
     id="defs6">
    <clipPath
       clipPathUnits="userSpaceOnUse"
       id="clipPath16">
      <path
         d="M 0,595.276 H 841.89 V 0 H 0 Z"
         id="path14" />
    </clipPath>
  </defs>
  <g
     id="g8"
     transform="matrix(1.3333333,0,0,-1.3333333,0,793.70133)">
    <g
       id="g10">
      <g
         id="g12"
         clip-path="url(#clipPath16)">
        <g
           id="g18"
           transform="translate(303.5769,350.2858)">
          <path
             d="m 0,0 c -0.6,1.544 -2.767,1.591 -3.434,0.075 l -3.853,-8.76 c -0.198,-0.451 -0.21,-0.963 -0.031,-1.422 L -2.221,-23.21 17.084,-72.869 H 28.331 L 3.749,-9.637 Z"
             style="fill:#cba382;fill-opacity:1;fill-rule:nonzero;stroke:none"
             id="path20" />
        </g>
        <g
           id="g22"
           transform="translate(487.3052,351.4415)">
          <path
             d="m 0,0 h -7.904 l 0.019,-74.046 H 2.592 L 2.572,-2.572 C 2.572,-1.152 1.421,0 0,0"
             style="fill:#cba382;fill-opacity:1;fill-rule:nonzero;stroke:none"
             id="path24" />
        </g>
        <g
           id="g26"
           transform="translate(363.4684,287.8541)">
          <path
             d="m 0,0 v 61.024 c 0,1.416 -1.158,2.574 -2.574,2.574 h -7.91 l 0.03,-68.063 c 0,-3.297 2.663,-5.97 5.96,-5.97 H 14.108 V -5.96 H 5.96 C 2.663,-5.96 0,-3.297 0,0"
             style="fill:#cba382;fill-opacity:1;fill-rule:nonzero;stroke:none"
             id="path28" />
        </g>
        <g
           id="g30"
           transform="translate(428.1931,294.4364)">
          <path
             d="m 0,0 -3.079,7.92 -18.452,47.451 c -0.385,0.989 -1.337,1.64 -2.398,1.64 h -9.486 l 24.366,-62.664 3.089,-7.93 0.931,-2.386 c 0.005,-0.013 0.015,-0.022 0.02,-0.035 l 0.01,-0.024 c 0.495,-1.267 2.267,-1.307 2.811,-0.06 l 0.019,0.042 c 0.003,0.007 0.008,0.011 0.011,0.018 L 2.297,-5.9 v 0.009 l 27.64,62.902 h -4.881 z"
             style="fill:#cba382;fill-opacity:1;fill-rule:nonzero;stroke:none"
             id="path32" />
        </g>
        <g
           id="g34"
           transform="translate(293.73,311.0017)">
          <path
             d="m 0,0 c -3.374,-0.195 -6.086,-1.08 -8.248,-2.324 -0.138,-0.075 -0.276,-0.15 -0.4,-0.24 -1.349,-0.825 -2.478,-1.785 -3.415,-2.804 -3.621,-3.884 -4.461,-8.442 -4.461,-8.442 -1.722,-7.858 -3.746,-12.416 -5.605,-15.07 -1.542,-2.22 -2.974,-3.089 -4.007,-3.404 -0.716,-0.225 -1.225,-0.195 -1.46,-0.15 0.482,-0.15 0.978,-0.27 1.46,-0.39 1.391,-0.3 2.782,-0.48 4.145,-0.495 0.606,-0.015 1.212,0 1.818,0.045 h 0.013 c 3.016,0.225 5.894,1.23 8.386,3.164 3.291,2.579 5.922,6.793 7.285,13.106 1.79,8.262 4.448,12.535 6.486,14.68 C 3.677,-0.54 4.93,-0.18 4.93,-0.18 4.214,-0.09 3.498,-0.03 2.823,0 1.831,0.06 0.895,0.06 0,0"
             style="fill:#cba382;fill-opacity:1;fill-rule:nonzero;stroke:none"
             id="path36" />
        </g>
        <g
           id="g38"
           transform="translate(552.3546,340.6133)">
          <path
             d="m 0,0 -3.749,9.637 c -0.6,1.544 -2.767,1.591 -3.434,0.075 l -3.853,-8.76 c -0.198,-0.451 -0.209,-0.963 -0.031,-1.422 l 5.097,-13.103 19.306,-49.659 h 11.246 z"
             style="fill:#cba382;fill-opacity:1;fill-rule:nonzero;stroke:none"
             id="path40" />
        </g>
        <g
           id="g42"
           transform="translate(538.7591,310.9666)">
          <path
             d="m 0,0 c -3.374,-0.195 -6.086,-1.08 -8.248,-2.324 -0.138,-0.075 -0.276,-0.15 -0.4,-0.24 -1.349,-0.825 -2.478,-1.785 -3.415,-2.804 -3.621,-3.884 -4.461,-8.442 -4.461,-8.442 -1.722,-7.858 -3.746,-12.416 -5.605,-15.07 -1.542,-2.22 -2.974,-3.089 -4.007,-3.404 -0.716,-0.225 -1.225,-0.195 -1.46,-0.15 0.482,-0.15 0.978,-0.27 1.46,-0.39 1.391,-0.3 2.782,-0.48 4.145,-0.495 0.606,-0.015 1.212,0 1.818,0.045 h 0.013 c 3.016,0.225 5.894,1.23 8.387,3.164 3.291,2.579 5.921,6.793 7.284,13.106 1.79,8.262 4.448,12.536 6.486,14.68 C 3.677,-0.54 4.93,-0.18 4.93,-0.18 4.214,-0.09 3.498,-0.03 2.823,0 1.831,0.06 0.895,0.06 0,0"
             style="fill:#cba382;fill-opacity:1;fill-rule:nonzero;stroke:none"
             id="path44" />
        </g>
        <g
           id="g46"
           transform="translate(354.756,255.6846)">
          <path
             d="M 0,0 V -11.664 H -1.62 V -2.7 C -1.801,-3.216 -2.034,-3.757 -2.322,-4.32 L -5.13,-9.774 h -1.602 l -2.754,5.454 c -0.157,0.299 -0.303,0.591 -0.442,0.873 -0.137,0.282 -0.249,0.524 -0.333,0.729 v -8.946 h -1.584 V 0 h 1.891 l 2.628,-5.148 c 0.708,-1.392 1.181,-2.443 1.422,-3.15 0.132,0.407 0.315,0.869 0.549,1.386 0.234,0.516 0.525,1.103 0.873,1.764 L -1.836,0 Z"
             style="fill:#cba382;fill-opacity:1;fill-rule:nonzero;stroke:none"
             id="path48" />
        </g>
        <g
           id="g50"
           transform="translate(379.4151,244.4346)">
          <path
             d="M 0,0 C -0.72,0.42 -1.254,0.999 -1.602,1.736 -1.95,2.475 -2.123,3.312 -2.123,4.248 v 7.002 h 1.655 V 4.607 c 0,-2.532 1.092,-3.797 3.277,-3.797 1.116,0 1.922,0.321 2.42,0.962 0.499,0.643 0.748,1.551 0.748,2.728 v 6.75 H 7.633 V 4.302 C 7.633,3.161 7.416,2.223 6.984,1.484 6.553,0.747 5.968,0.21 5.229,-0.126 4.491,-0.462 3.648,-0.63 2.7,-0.63 1.62,-0.63 0.721,-0.42 0,0"
             style="fill:#cba382;fill-opacity:1;fill-rule:nonzero;stroke:none"
             id="path52" />
        </g>
        <g
           id="g54"
           transform="translate(410.5196,244.1553)">
          <path
             d="M 0,0 C -0.708,0.233 -1.332,0.561 -1.872,0.981 L -1.08,2.169 C -0.601,1.797 -0.058,1.518 0.549,1.332 1.154,1.146 1.728,1.053 2.268,1.053 c 0.864,0 1.521,0.156 1.971,0.468 0.449,0.312 0.675,0.786 0.675,1.421 0,0.372 -0.081,0.679 -0.243,0.919 C 4.509,4.101 4.245,4.32 3.879,4.519 3.513,4.716 2.988,4.935 2.304,5.175 L 1.998,5.283 C 1.242,5.547 0.63,5.808 0.162,6.065 -0.306,6.324 -0.685,6.663 -0.972,7.083 -1.26,7.503 -1.404,8.03 -1.404,8.667 c 0,0.672 0.182,1.239 0.549,1.701 0.366,0.462 0.849,0.807 1.449,1.035 0.599,0.228 1.242,0.342 1.926,0.342 0.72,0 1.401,-0.09 2.042,-0.269 0.643,-0.181 1.27,-0.475 1.882,-0.883 L 5.687,9.405 C 5.16,9.741 4.649,9.983 4.158,10.134 3.666,10.284 3.114,10.358 2.502,10.358 1.865,10.358 1.338,10.227 0.918,9.963 0.498,9.699 0.288,9.291 0.288,8.739 0.288,8.451 0.356,8.199 0.495,7.983 0.633,7.767 0.873,7.562 1.215,7.371 1.557,7.179 2.034,6.976 2.646,6.759 L 2.952,6.651 C 3.756,6.375 4.397,6.114 4.878,5.868 5.357,5.622 5.771,5.268 6.12,4.806 6.468,4.344 6.642,3.747 6.642,3.015 6.642,2.283 6.468,1.668 6.12,1.17 5.771,0.672 5.273,0.294 4.626,0.036 3.978,-0.222 3.21,-0.351 2.322,-0.351 1.481,-0.351 0.708,-0.234 0,0"
             style="fill:#cba382;fill-opacity:1;fill-rule:nonzero;stroke:none"
             id="path56" />
        </g>
        <g
           id="g58"
           transform="translate(441.0294,244.542)">
          <path
             d="m 0,0 c -0.804,0.492 -1.4,1.188 -1.791,2.089 -0.39,0.899 -0.585,1.961 -0.585,3.185 0,1.416 0.249,2.577 0.747,3.483 0.498,0.906 1.15,1.566 1.953,1.98 0.804,0.414 1.687,0.621 2.647,0.621 0.731,0 1.406,-0.089 2.024,-0.269 0.618,-0.181 1.209,-0.444 1.774,-0.793 L 6.049,9.036 C 5.112,9.624 4.11,9.918 3.042,9.918 1.794,9.918 0.873,9.511 0.279,8.694 -0.314,7.878 -0.611,6.769 -0.611,5.364 -0.611,3.912 -0.3,2.772 0.324,1.944 0.948,1.116 1.866,0.702 3.078,0.702 3.69,0.702 4.242,0.78 4.734,0.937 5.227,1.092 5.719,1.314 6.211,1.603 L 6.876,0.396 C 6.24,0.024 5.619,-0.258 5.014,-0.45 4.407,-0.642 3.738,-0.737 3.007,-0.737 1.807,-0.737 0.805,-0.492 0,0"
             style="fill:#cba382;fill-opacity:1;fill-rule:nonzero;stroke:none"
             id="path60" />
        </g>
        <g
           id="g62"
           transform="translate(471.7071,248.7188)">
          <path
             d="M 0,0 H 3.96 L 1.983,5.399 Z M 3.027,6.966 7.41,-4.591 V -4.698 H 5.686 l -1.223,3.33 h -4.968 l -1.208,-3.33 h -1.659 v 0.107 L 1.012,6.966 Z"
             style="fill:#cba382;fill-opacity:1;fill-rule:nonzero;stroke:none"
             id="path64" />
        </g>
        <g
           id="g66"
           transform="translate(501.3116,255.6846)">
          <path
             d="M 0,0 V -1.44 H -4.031 V -11.664 H -5.687 V -1.44 h -4.05 V 0 Z"
             style="fill:#cba382;fill-opacity:1;fill-rule:nonzero;stroke:none"
             id="path68" />
        </g>
        <path
           d="m 322.11,249.286 h -58.961 v 0.5 h 58.961 z"
           style="fill:#cba382;fill-opacity:1;fill-rule:nonzero;stroke:none"
           id="path70" />
        <path
           d="m 578.74,249.286 h -58.96 v 0.5 h 58.96 z"
           style="fill:#cba382;fill-opacity:1;fill-rule:nonzero;stroke:none"
           id="path72" />
      </g>
    </g>
  </g>
</svg>
